/* XPM */
static char * dvgrabgui32x32_xpm[] = {
"32 32 395 2",
"  	c None",
". 	c #E35B21",
"+ 	c #E35A22",
"@ 	c #DF2B0A",
"# 	c #DF6B2B",
"$ 	c #BE753C",
"% 	c #DD6C2D",
"& 	c #E05F23",
"* 	c #D57434",
"= 	c #E14616",
"- 	c #E15B20",
"; 	c #BA773D",
"> 	c #D16E31",
", 	c #A77742",
"' 	c #4E4733",
") 	c #463F2E",
"! 	c #C77D3C",
"~ 	c #967246",
"{ 	c #191814",
"] 	c #000000",
"^ 	c #1A1915",
"/ 	c #A87744",
"( 	c #C97E3E",
"_ 	c #332F25",
": 	c #020202",
"< 	c #786344",
"[ 	c #E14716",
"} 	c #D97834",
"| 	c #474031",
"1 	c #23211B",
"2 	c #D76D2F",
"3 	c #8E6A3B",
"4 	c #514832",
"5 	c #302E26",
"6 	c #23231E",
"7 	c #353329",
"8 	c #3E392B",
"9 	c #3F3B2F",
"0 	c #151411",
"a 	c #D56F33",
"b 	c #C46E34",
"c 	c #48402D",
"d 	c #121210",
"e 	c #A67746",
"f 	c #5E4D31",
"g 	c #4C4636",
"h 	c #9B7144",
"i 	c #8C6232",
"j 	c #A66C37",
"k 	c #E36223",
"l 	c #927145",
"m 	c #181815",
"n 	c #070706",
"o 	c #DD823A",
"p 	c #E14C18",
"q 	c #A47A4A",
"r 	c #8F6C44",
"s 	c #DE1F05",
"t 	c #A95328",
"u 	c #D76B2C",
"v 	c #C98040",
"w 	c #161512",
"x 	c #3C372C",
"y 	c #E24D1A",
"z 	c #DC5722",
"A 	c #E36020",
"B 	c #4A4334",
"C 	c #806643",
"D 	c #DF6327",
"E 	c #22201B",
"F 	c #BF713A",
"G 	c #DD0900",
"H 	c #E04013",
"I 	c #554C39",
"J 	c #60543E",
"K 	c #DF340D",
"L 	c #DE2407",
"M 	c #A17748",
"N 	c #0A0A09",
"O 	c #E57030",
"P 	c #DE1D05",
"Q 	c #866B46",
"R 	c #906E45",
"S 	c #E14113",
"T 	c #494334",
"U 	c #BA753E",
"V 	c #DD1503",
"W 	c #9C7345",
"X 	c #2E2B24",
"Y 	c #E2531D",
"Z 	c #E16A2B",
"` 	c #11110F",
" .	c #CB7438",
"..	c #957247",
"+.	c #AD7541",
"@.	c #DF340C",
"#.	c #5F543E",
"$.	c #BA773F",
"%.	c #CB773B",
"&.	c #0C0C0A",
"*.	c #E56C2D",
"=.	c #E14B18",
"-.	c #3A362C",
";.	c #CB7739",
">.	c #DF2808",
",.	c #766343",
"'.	c #0B0B09",
").	c #DD7434",
"!.	c #DF330C",
"~.	c #BD763D",
"{.	c #E26628",
"].	c #131210",
"^.	c #030303",
"/.	c #E57130",
"(.	c #E03E11",
"_.	c #4C4536",
":.	c #E14915",
"<.	c #4E4736",
"[.	c #60553E",
"}.	c #E04112",
"|.	c #D67938",
"1.	c #E2541C",
"2.	c #333028",
"3.	c #25241E",
"4.	c #E35E23",
"5.	c #CB773A",
"6.	c #D57C39",
"7.	c #0C0C09",
"8.	c #BD7F43",
"9.	c #E04012",
"0.	c #4C4535",
"a.	c #12110F",
"b.	c #E16C2D",
"c.	c #E36124",
"d.	c #1F1D19",
"e.	c #504837",
"f.	c #E03F11",
"g.	c #D77536",
"h.	c #7F6A45",
"i.	c #504835",
"j.	c #E2541B",
"k.	c #E2511A",
"l.	c #39352B",
"m.	c #3D392D",
"n.	c #E24D19",
"o.	c #DA7836",
"p.	c #050505",
"q.	c #8F7046",
"r.	c #E14313",
"s.	c #4B4536",
"t.	c #E46427",
"u.	c #D97D36",
"v.	c #26231A",
"w.	c #C78140",
"x.	c #E3712E",
"y.	c #10100D",
"z.	c #886C46",
"A.	c #A57946",
"B.	c #0A0A08",
"C.	c #D57938",
"D.	c #E3591F",
"E.	c #2B2922",
"F.	c #E3591E",
"G.	c #6C5B39",
"H.	c #A27B47",
"I.	c #B17A44",
"J.	c #0F0E0C",
"K.	c #D77132",
"L.	c #5E533C",
"M.	c #63573E",
"N.	c #DE7734",
"O.	c #876B45",
"P.	c #DE2005",
"Q.	c #84693E",
"R.	c #836940",
"S.	c #5E523B",
"T.	c #5E5740",
"U.	c #CE6D2F",
"V.	c #DE1804",
"W.	c #D47D3A",
"X.	c #1F1D16",
"Y.	c #D17F3C",
"Z.	c #AC7944",
"`.	c #0D0D0B",
" +	c #D27333",
".+	c #E0551D",
"++	c #81663E",
"@+	c #83683D",
"#+	c #DC6226",
"$+	c #CD8B47",
"%+	c #363327",
"&+	c #2A2923",
"*+	c #25231D",
"=+	c #C57F43",
"-+	c #E5752E",
";+	c #5D4F35",
">+	c #AA7E48",
",+	c #66573C",
"'+	c #806E47",
")+	c #CA8741",
"!+	c #49402C",
"~+	c #8F7042",
"{+	c #D1823C",
"]+	c #322F24",
"^+	c #3C3627",
"/+	c #8B744A",
"(+	c #010101",
"_+	c #1D1C16",
":+	c #896C42",
"<+	c #B28047",
"[+	c #1C1B17",
"}+	c #54503D",
"|+	c #2A271D",
"1+	c #B38046",
"2+	c #6A5839",
"3+	c #594F39",
"4+	c #D56F31",
"5+	c #E24F1A",
"6+	c #806744",
"7+	c #201E19",
"8+	c #22211B",
"9+	c #9A7648",
"0+	c #E14A16",
"a+	c #BB7035",
"b+	c #13120F",
"c+	c #10100E",
"d+	c #6F5E41",
"e+	c #DE7330",
"f+	c #DF310C",
"g+	c #E46125",
"h+	c #E36024",
"i+	c #A0713F",
"j+	c #D77735",
"k+	c #E03B0F",
"l+	c #AB763E",
"m+	c #B2703A",
"n+	c #CA7E39",
"o+	c #8A6639",
"p+	c #C75C28",
"q+	c #423C2C",
"r+	c #5F533A",
"s+	c #E14715",
"t+	c #665334",
"u+	c #A87D43",
"v+	c #DE5F24",
"w+	c #916E42",
"x+	c #725C3B",
"y+	c #C27B3A",
"z+	c #6F5B3C",
"A+	c #8C7148",
"B+	c #917043",
"C+	c #B36B33",
"D+	c #916D41",
"E+	c #755F3D",
"F+	c #DB6524",
"G+	c #846B45",
"H+	c #38362A",
"I+	c #A97E48",
"J+	c #BF6632",
"K+	c #DF2B09",
"L+	c #C26F36",
"M+	c #9A7444",
"N+	c #8D6137",
"O+	c #DD6627",
"P+	c #7C623D",
"Q+	c #BB7239",
"R+	c #C27439",
"S+	c #775D3A",
"T+	c #E2551C",
"U+	c #B58143",
"V+	c #6C5A39",
"W+	c #E2541D",
"X+	c #6C5A3A",
"Y+	c #3D3B2E",
"Z+	c #544D39",
"`+	c #A87E43",
" @	c #1F1E19",
".@	c #23221C",
"+@	c #5C4F37",
"@@	c #B4793C",
"#@	c #635A3F",
"$@	c #24231D",
"%@	c #A06E3D",
"&@	c #9D7241",
"*@	c #0D0D0C",
"=@	c #21201C",
"-@	c #494230",
";@	c #CB843E",
">@	c #47402E",
",@	c #23231D",
"'@	c #806A45",
")@	c #BA6B31",
"!@	c #383529",
"~@	c #776441",
"{@	c #79633E",
"]@	c #26241D",
"^@	c #D9702E",
"/@	c #81643F",
"(@	c #383428",
"_@	c #E46627",
":@	c #B6753C",
"<@	c #333025",
"[@	c #777050",
"}@	c #2E2B22",
"|@	c #E69640",
"1@	c #2C2A21",
"2@	c #A5824C",
"3@	c #E14A15",
"4@	c #C67739",
"5@	c #474230",
"6@	c #23221D",
"7@	c #977546",
"8@	c #B37C41",
"9@	c #24231C",
"0@	c #8B8157",
"a@	c #3D382A",
"b@	c #7A6C47",
"c@	c #696347",
"d@	c #55523E",
"e@	c #64573E",
"f@	c #E25C1C",
"g@	c #5B513B",
"h@	c #736242",
"i@	c #B88644",
"j@	c #181713",
"k@	c #D2813B",
"l@	c #9D7342",
"m@	c #2D2A21",
"n@	c #E27A32",
"o@	c #B0713B",
"p@	c #151512",
"q@	c #C59149",
"r@	c #28261E",
"s@	c #705B3C",
"t@	c #E2501A",
"u@	c #4F4532",
"v@	c #403E32",
"w@	c #443C2C",
"x@	c #9D7C48",
"y@	c #1A1916",
"z@	c #4D4632",
"A@	c #B67C41",
"B@	c #6A593C",
"C@	c #131311",
"D@	c #171714",
"E@	c #3A362A",
"F@	c #E46723",
"G@	c #554C38",
"H@	c #38352B",
"I@	c #675C3E",
"J@	c #0E0E0C",
"K@	c #5D4D34",
"L@	c #A47A45",
"M@	c #6A593A",
"N@	c #E14A18",
"O@	c #8F7345",
"P@	c #847A53",
"Q@	c #23211A",
"R@	c #D18039",
"S@	c #715939",
"T@	c #C3783C",
"U@	c #DF370E",
"V@	c #986F41",
"W@	c #63563B",
"X@	c #866C45",
"Y@	c #BC733B",
"Z@	c #BE6F35",
"`@	c #605238",
" #	c #C5793E",
".#	c #DF2A09",
"+#	c #D36E30",
"@#	c #6A6043",
"##	c #6E694D",
"$#	c #5E5139",
"%#	c #E14C16",
"&#	c #836540",
"*#	c #5E513A",
"=#	c #D08742",
"-#	c #7C603C",
";#	c #CE6F33",
">#	c #D2672B",
",#	c #655539",
"'#	c #BD7E41",
")#	c #D86328",
"!#	c #5C5037",
"~#	c #3C3728",
"{#	c #A77643",
"]#	c #B46833",
"^#	c #2E2B20",
"/#	c #3B3627",
"(#	c #C57438",
"_#	c #7E663F",
":#	c #C37E3E",
"<#	c #A9753E",
"[#	c #DA702E",
"                                                                ",
"                                                                ",
"                                                                ",
"          . +   @ # $ %           & * =           - ; >         ",
"        , ' ) ! ~ { ] ^ /       ( _ : < [       } | ] 1 2       ",
"      3 4 5 6 7 8 9 ] ] 0 a   b c d ] : e       f g ] ] h       ",
"    i j k l m n o p q : ] r s t u v w ] x y     z A B ] C       ",
"          D E ] F G H I ] J K     L M ] N O       P Q ] R       ",
"          S T ] U   V W ] X Y       Z ` ]  .        ..] +.      ",
"          @.#.] $.    %.] &.*.      =.-.] ;.      >.,.'.).      ",
"          !.#.] ~.    {.].^./.      (._.] ;.      :.<.[.}.      ",
"          @.#.] |.    1.2.3.4.      (._.] 5.      6.7.8.        ",
"          9.0.a.b.    c.d.e.S       f._.: g.      h.i.j.        ",
"          k.l.m.n.    o.p.q.        r.s.{ t.    u.v.w.          ",
"          x.y.z.      A.B.C.        D.E.B S   F.G.H.            ",
"          I.J.K.    }.L.M.r.        N.n O.P.r.Q.R.              ",
"        (.S.T.U.V.  W.X.Y.          Z.`. +.+++@+                ",
"      #+$+%+&+*+=+-+;+>+          (.,+'+)+!+~+                  ",
"    {+]+^+/+] ] (+_+:+            <+[+}+|+1+                    ",
"    2+3+4+5+6+7+8+9+0+          a+b+c+d+e+                      ",
"            f+g+h+                i+j+k+                        ",
"                          l+m+                        n+o+      ",
"                        p+q+r+s+                      t+u+      ",
"    v+w+x+y+z+A+B+C+D+E+F+G+H+I+J+K+L+M+N+O+P+Q+R+S+T+U+V+      ",
"  W+X+Y+Z+`+ @.@+@@@#@$@%@&@*@=@-@;@>@,@'@)@!@~@{@]@^@/@(@_@    ",
"  :@<@[@}@|@1@2@3@4@5@6@7@8@9@0@a@b@c@d@e@f@g@h@i@j@k@l@m@n@    ",
"  o@3.=@p@q@r@s@t@u@v@6@w@x@y@z@A@B@C@D@E@F@G@H@I@J@K@L@ @M@    ",
"  N@O@P@Q@R@S@T@U@V@W@X@Y@Z@`@ #.#+#@###$#%#&#*#=#-#;#>#,#'#    ",
"  )#!#~#{#f+                      ]#^#/#(#                      ",
"    _#:#                            <#[#                        ",
"                                                                ",
"                                                                "};
